<svg width="80" height="88" fill="none" xmlns="http://www.w3.org/2000/svg"><g filter="url(#a)"><path d="M0 47.895C0 25.862 17.966 8 40 8s40 17.862 40 39.895c0 22.034-17.966 39.896-40 39.896S0 69.929 0 47.895z" fill="url(#b)"/><path d="M.5 47.895C.5 26.14 18.24 8.5 40 8.5s39.5 17.64 39.5 39.395c0 21.756-17.74 39.396-39.5 39.396S.5 69.65.5 47.895z" stroke="url(#c)"/><path d="M.5 47.895C.5 26.14 18.24 8.5 40 8.5s39.5 17.64 39.5 39.395c0 21.756-17.74 39.396-39.5 39.396S.5 69.65.5 47.895z" stroke="url(#d)"/><path d="M.5 47.895C.5 26.14 18.24 8.5 40 8.5s39.5 17.64 39.5 39.395c0 21.756-17.74 39.396-39.5 39.396S.5 69.65.5 47.895z" stroke="url(#e)"/></g><g filter="url(#f)"><ellipse cx="39.743" cy="29.482" rx="25.385" ry="16.367" fill="url(#g)" fill-opacity=".2"/></g><path d="M35.022 35.556a2.489 2.489 0 1 0 0 4.977h13.903l-3.218 3.218a2.489 2.489 0 0 0 3.52 3.52l7.466-7.467a2.489 2.489 0 0 0 0-3.52l-7.467-7.466a2.488 2.488 0 1 0-3.519 3.52l3.218 3.218H35.022z" fill="url(#h)"/><path d="M44.978 60.444a2.489 2.489 0 0 0 0-4.977H31.075l3.218-3.218a2.488 2.488 0 1 0-3.52-3.52l-7.466 7.467a2.489 2.489 0 0 0 0 3.52l7.467 7.466a2.49 2.49 0 0 0 3.519-3.52l-3.218-3.218h13.903z" fill="url(#i)"/><defs><radialGradient id="b" cx="0" cy="0" r="1" gradientUnits="userSpaceOnUse" gradientTransform="rotate(47.945 -5.65 11.525) scale(119.431 86.7751)"><stop stop-color="#fff" stop-opacity=".36"/><stop offset="1" stop-color="#fff" stop-opacity="0"/></radialGradient><radialGradient id="c" cx="0" cy="0" r="1" gradientUnits="userSpaceOnUse" gradientTransform="rotate(35.041 -46.897 -59.384) scale(92.1512 54.3882)"><stop stop-color="#fff"/><stop offset="1" stop-color="#fff" stop-opacity=".06"/></radialGradient><radialGradient id="d" cx="0" cy="0" r="1" gradientUnits="userSpaceOnUse" gradientTransform="rotate(161.385 46.679 39.175) scale(66.8428 45.1784)"><stop stop-color="#8470FF"/><stop offset="1" stop-color="#865CFF" stop-opacity="0"/></radialGradient><radialGradient id="e" cx="0" cy="0" r="1" gradientUnits="userSpaceOnUse" gradientTransform="matrix(30.32378 32.76379 -23.54952 21.79572 40.871 -10.236)"><stop/><stop offset="1" stop-color="#fff" stop-opacity="0"/></radialGradient><radialGradient id="g" cx="0" cy="0" r="1" gradientUnits="userSpaceOnUse" gradientTransform="matrix(0 24.2566 -37.625 0 39.743 13.115)"><stop stop-color="#fff"/><stop offset="1" stop-color="#fff" stop-opacity="0"/></radialGradient><linearGradient id="h" x1="28.93" y1="87.377" x2="80.725" y2="52.087" gradientUnits="userSpaceOnUse"><stop stop-color="#982DEC"/><stop offset=".573" stop-color="#DC8DF8"/><stop offset=".896" stop-color="#A9C4F3"/></linearGradient><linearGradient id="i" x1="28.93" y1="87.377" x2="80.725" y2="52.087" gradientUnits="userSpaceOnUse"><stop stop-color="#982DEC"/><stop offset=".573" stop-color="#DC8DF8"/><stop offset=".896" stop-color="#A9C4F3"/></linearGradient><filter id="a" x="-5" y="3" width="90" height="89.791" filterUnits="userSpaceOnUse" color-interpolation-filters="sRGB"><feFlood flood-opacity="0" result="BackgroundImageFix"/><feGaussianBlur in="BackgroundImageFix" stdDeviation="2.5"/><feComposite in2="SourceAlpha" operator="in" result="effect1_backgroundBlur_18_286"/><feBlend in="SourceGraphic" in2="effect1_backgroundBlur_18_286" result="shape"/></filter><filter id="f" x="1.404" y=".16" width="76.678" height="58.644" filterUnits="userSpaceOnUse" color-interpolation-filters="sRGB"><feFlood flood-opacity="0" result="BackgroundImageFix"/><feBlend in="SourceGraphic" in2="BackgroundImageFix" result="shape"/><feGaussianBlur stdDeviation="6.477" result="effect1_foregroundBlur_18_286"/></filter></defs></svg>