<svg width="80" height="88" fill="none" xmlns="http://www.w3.org/2000/svg"><g filter="url(#a)"><path d="M0 47.895C0 25.862 17.966 8 40 8s40 17.862 40 39.895c0 22.034-17.966 39.896-40 39.896S0 69.929 0 47.895z" fill="url(#b)"/><path d="M.5 47.895C.5 26.14 18.24 8.5 40 8.5s39.5 17.64 39.5 39.395c0 21.756-17.74 39.396-39.5 39.396S.5 69.65.5 47.895z" stroke="url(#c)"/><path d="M.5 47.895C.5 26.14 18.24 8.5 40 8.5s39.5 17.64 39.5 39.395c0 21.756-17.74 39.396-39.5 39.396S.5 69.65.5 47.895z" stroke="url(#d)"/><path d="M.5 47.895C.5 26.14 18.24 8.5 40 8.5s39.5 17.64 39.5 39.395c0 21.756-17.74 39.396-39.5 39.396S.5 69.65.5 47.895z" stroke="url(#e)"/></g><g filter="url(#f)"><ellipse cx="39.743" cy="29.482" rx="25.385" ry="16.367" fill="url(#g)" fill-opacity=".2"/></g><path fill-rule="evenodd" clip-rule="evenodd" d="M46.222 31.407a6.228 6.228 0 0 1 5.87 4.149H33.778a10.37 10.37 0 0 0-10.37 10.37v10.018a6.224 6.224 0 0 1-4.149-5.87V37.63a6.222 6.222 0 0 1 6.223-6.223h20.74zm8.297 8.297H33.778a6.222 6.222 0 0 0-6.222 6.222V58.37a6.222 6.222 0 0 0 6.222 6.223h20.74a6.222 6.222 0 0 0 6.223-6.223V45.926a6.222 6.222 0 0 0-6.222-6.222zm-6.223 12.444a4.148 4.148 0 1 1-8.296 0 4.148 4.148 0 0 1 8.296 0z" fill="url(#h)"/><defs><radialGradient id="b" cx="0" cy="0" r="1" gradientUnits="userSpaceOnUse" gradientTransform="rotate(47.945 -5.65 11.525) scale(119.431 86.7751)"><stop stop-color="#fff" stop-opacity=".36"/><stop offset="1" stop-color="#fff" stop-opacity="0"/></radialGradient><radialGradient id="c" cx="0" cy="0" r="1" gradientUnits="userSpaceOnUse" gradientTransform="rotate(35.041 -46.897 -59.384) scale(92.1512 54.3882)"><stop stop-color="#fff"/><stop offset="1" stop-color="#fff" stop-opacity=".06"/></radialGradient><radialGradient id="d" cx="0" cy="0" r="1" gradientUnits="userSpaceOnUse" gradientTransform="rotate(161.385 46.679 39.175) scale(66.8428 45.1784)"><stop stop-color="#8470FF"/><stop offset="1" stop-color="#865CFF" stop-opacity="0"/></radialGradient><radialGradient id="e" cx="0" cy="0" r="1" gradientUnits="userSpaceOnUse" gradientTransform="matrix(30.32378 32.76379 -23.54952 21.79572 40.871 -10.236)"><stop/><stop offset="1" stop-color="#fff" stop-opacity="0"/></radialGradient><radialGradient id="g" cx="0" cy="0" r="1" gradientUnits="userSpaceOnUse" gradientTransform="matrix(0 24.2566 -37.625 0 39.743 13.115)"><stop stop-color="#fff"/><stop offset="1" stop-color="#fff" stop-opacity="0"/></radialGradient><filter id="a" x="-5" y="3" width="90" height="89.791" filterUnits="userSpaceOnUse" color-interpolation-filters="sRGB"><feFlood flood-opacity="0" result="BackgroundImageFix"/><feGaussianBlur in="BackgroundImageFix" stdDeviation="2.5"/><feComposite in2="SourceAlpha" operator="in" result="effect1_backgroundBlur_18_303"/><feBlend in="SourceGraphic" in2="effect1_backgroundBlur_18_303" result="shape"/></filter><filter id="f" x="1.404" y=".16" width="76.678" height="58.644" filterUnits="userSpaceOnUse" color-interpolation-filters="sRGB"><feFlood flood-opacity="0" result="BackgroundImageFix"/><feBlend in="SourceGraphic" in2="BackgroundImageFix" result="shape"/><feGaussianBlur stdDeviation="6.477" result="effect1_foregroundBlur_18_303"/></filter><linearGradient id="h" x1="26.821" y1="80.839" x2="73.183" y2="35.712" gradientUnits="userSpaceOnUse"><stop stop-color="#982DEC"/><stop offset=".573" stop-color="#DC8DF8"/><stop offset=".896" stop-color="#A9C4F3"/></linearGradient></defs></svg>