<svg width="80" height="88" fill="none" xmlns="http://www.w3.org/2000/svg"><g filter="url(#a)"><path d="M0 47.895C0 25.862 17.966 8 40 8s40 17.862 40 39.895c0 22.034-17.966 39.896-40 39.896S0 69.929 0 47.895z" fill="url(#b)"/><path d="M.5 47.895C.5 26.14 18.24 8.5 40 8.5s39.5 17.64 39.5 39.395c0 21.756-17.74 39.396-39.5 39.396S.5 69.65.5 47.895z" stroke="url(#c)"/><path d="M.5 47.895C.5 26.14 18.24 8.5 40 8.5s39.5 17.64 39.5 39.395c0 21.756-17.74 39.396-39.5 39.396S.5 69.65.5 47.895z" stroke="url(#d)"/><path d="M.5 47.895C.5 26.14 18.24 8.5 40 8.5s39.5 17.64 39.5 39.395c0 21.756-17.74 39.396-39.5 39.396S.5 69.65.5 47.895z" stroke="url(#e)"/></g><g filter="url(#f)"><ellipse cx="39.743" cy="29.482" rx="25.385" ry="16.367" fill="url(#g)" fill-opacity=".2"/></g><path d="M54.933 38.667v-3.734A3.737 3.737 0 0 0 51.2 31.2H26.933a5.607 5.607 0 0 0-5.6 5.6v22.4c0 4.108 3.35 5.6 5.6 5.6h28a3.737 3.737 0 0 0 3.734-3.733V42.4a3.737 3.737 0 0 0-3.734-3.733zm-3.733 16.8h-3.733V48H51.2v7.467zm-24.267-16.8a1.868 1.868 0 0 1 0-3.734H51.2v3.734H26.933z" fill="url(#h)"/><defs><radialGradient id="b" cx="0" cy="0" r="1" gradientUnits="userSpaceOnUse" gradientTransform="rotate(47.945 -5.65 11.525) scale(119.431 86.7751)"><stop stop-color="#fff" stop-opacity=".36"/><stop offset="1" stop-color="#fff" stop-opacity="0"/></radialGradient><radialGradient id="c" cx="0" cy="0" r="1" gradientUnits="userSpaceOnUse" gradientTransform="rotate(35.041 -46.897 -59.384) scale(92.1512 54.3882)"><stop stop-color="#fff"/><stop offset="1" stop-color="#fff" stop-opacity=".06"/></radialGradient><radialGradient id="d" cx="0" cy="0" r="1" gradientUnits="userSpaceOnUse" gradientTransform="rotate(161.385 46.679 39.175) scale(66.8428 45.1784)"><stop stop-color="#8470FF"/><stop offset="1" stop-color="#865CFF" stop-opacity="0"/></radialGradient><radialGradient id="e" cx="0" cy="0" r="1" gradientUnits="userSpaceOnUse" gradientTransform="matrix(30.32378 32.76379 -23.54952 21.79572 40.871 -10.236)"><stop/><stop offset="1" stop-color="#fff" stop-opacity="0"/></radialGradient><radialGradient id="g" cx="0" cy="0" r="1" gradientUnits="userSpaceOnUse" gradientTransform="matrix(0 24.2566 -37.625 0 39.743 13.115)"><stop stop-color="#fff"/><stop offset="1" stop-color="#fff" stop-opacity="0"/></radialGradient><filter id="a" x="-5" y="3" width="90" height="89.791" filterUnits="userSpaceOnUse" color-interpolation-filters="sRGB"><feFlood flood-opacity="0" result="BackgroundImageFix"/><feGaussianBlur in="BackgroundImageFix" stdDeviation="2.5"/><feComposite in2="SourceAlpha" operator="in" result="effect1_backgroundBlur_18_321"/><feBlend in="SourceGraphic" in2="effect1_backgroundBlur_18_321" result="shape"/></filter><filter id="f" x="1.404" y=".16" width="76.678" height="58.644" filterUnits="userSpaceOnUse" color-interpolation-filters="sRGB"><feFlood flood-opacity="0" result="BackgroundImageFix"/><feBlend in="SourceGraphic" in2="BackgroundImageFix" result="shape"/><feGaussianBlur stdDeviation="6.477" result="effect1_foregroundBlur_18_321"/></filter><linearGradient id="h" x1="28.139" y1="81.25" x2="74.61" y2="41.043" gradientUnits="userSpaceOnUse"><stop stop-color="#982DEC"/><stop offset=".573" stop-color="#DC8DF8"/><stop offset=".896" stop-color="#A9C4F3"/></linearGradient></defs></svg>