<?xml version="1.0" standalone="no"?>
<!DOCTYPE svg PUBLIC "-//W3C//DTD SVG 20010904//EN"
 "http://www.w3.org/TR/2001/REC-SVG-20010904/DTD/svg10.dtd">
<svg version="1.0" xmlns="http://www.w3.org/2000/svg"
 width="700.000000pt" height="700.000000pt" viewBox="0 0 700.000000 700.000000"
 preserveAspectRatio="xMidYMid meet">
<metadata>
Created by potrace 1.14, written by Peter Selinger 2001-2017
</metadata>
<g transform="translate(0.000000,700.000000) scale(0.100000,-0.100000)"
fill="#000000" stroke="none">
<path d="M3420 6849 c-30 -32 -60 -64 -65 -71 -45 -58 -64 -76 -70 -70 -5 4
-5 2 -2 -4 3 -6 -5 -22 -18 -36 -14 -15 -26 -32 -27 -39 -2 -6 -17 -28 -35
-47 -17 -20 -30 -40 -27 -44 3 -4 0 -8 -6 -8 -6 0 -15 -11 -22 -25 -6 -13 -15
-22 -21 -18 -6 3 -7 1 -3 -5 3 -6 -1 -17 -9 -25 -8 -9 -15 -20 -15 -26 0 -6
-5 -11 -11 -11 -5 0 -7 -4 -4 -10 3 -5 2 -10 -2 -10 -5 0 -17 -16 -27 -35 -11
-19 -23 -35 -28 -35 -5 0 -6 -4 -3 -10 3 -5 1 -10 -6 -10 -7 0 -10 -3 -6 -6 3
-4 1 -12 -6 -20 -30 -34 -37 -44 -30 -44 4 0 0 -5 -10 -11 -9 -6 -15 -14 -12
-19 3 -4 -2 -10 -10 -14 -8 -3 -15 -13 -15 -23 0 -10 -9 -29 -20 -43 -11 -14
-20 -30 -20 -36 0 -6 -7 -17 -15 -24 -8 -7 -12 -16 -9 -21 3 -5 2 -9 -3 -9 -4
0 -13 -10 -19 -23 -28 -57 -78 -143 -88 -149 -6 -4 -7 -8 -2 -8 4 0 1 -11 -8
-25 -9 -14 -14 -25 -11 -25 4 0 -1 -7 -9 -16 -9 -8 -14 -20 -11 -25 4 -5 1 -9
-5 -9 -6 0 -8 -4 -5 -10 3 -5 1 -10 -4 -10 -6 0 -11 -7 -11 -15 0 -8 -5 -15
-11 -15 -5 0 -8 -4 -4 -9 3 -5 -6 -31 -20 -57 -14 -27 -27 -55 -29 -64 -2 -8
-9 -28 -16 -45 -7 -16 -13 -33 -12 -37 1 -5 -3 -8 -10 -8 -6 0 -8 -3 -5 -6 3
-4 2 -15 -4 -26 -10 -19 -19 -49 -22 -78 -1 -8 -5 -18 -10 -21 -9 -6 -18 -44
-20 -76 -1 -13 -4 -23 -7 -23 -3 0 -7 -17 -8 -37 -2 -20 -6 -42 -10 -48 -4 -5
-7 -46 -6 -90 1 -98 9 -166 28 -240 19 -79 31 -115 38 -115 4 0 7 -3 6 -7 -3
-13 25 -83 34 -83 4 0 8 -6 8 -14 0 -7 11 -30 25 -50 13 -20 22 -36 20 -36 -5
0 26 -38 53 -66 7 -8 11 -14 7 -14 -3 0 28 -34 70 -75 42 -41 78 -75 81 -75 2
0 24 -16 50 -35 25 -19 51 -32 56 -29 7 4 8 2 4 -4 -4 -7 -1 -12 8 -12 8 0 16
-3 18 -8 4 -9 136 -70 163 -74 11 -2 22 -6 25 -10 3 -4 19 -9 35 -12 17 -2 32
-5 35 -7 3 -1 10 -3 15 -4 6 -2 12 -4 15 -5 5 -2 28 -5 110 -14 49 -5 152 -9
160 -6 3 1 19 4 35 5 85 8 141 18 151 27 7 5 16 8 20 7 22 -4 73 14 67 24 -4
7 0 8 11 4 11 -4 31 1 50 12 17 11 33 19 36 19 13 -1 100 45 100 54 0 5 5 6
10 3 6 -3 10 -2 10 3 0 5 12 15 27 23 30 16 67 47 127 104 22 22 46 38 51 37
6 -2 7 0 3 3 -4 4 12 31 36 59 40 48 103 147 97 154 -1 2 9 18 23 36 14 19 23
36 20 39 -3 3 2 19 10 36 9 17 16 33 16 36 -1 27 1 35 8 31 5 -3 8 7 7 22 -1
15 2 32 6 37 16 21 33 295 19 295 -3 0 -6 17 -8 38 -3 55 -5 62 -13 62 -4 0
-6 11 -4 25 1 14 -2 28 -7 31 -5 3 -7 12 -4 20 3 8 2 14 -2 14 -4 0 -14 21
-22 48 -7 26 -14 49 -15 52 -11 30 -19 49 -31 73 -8 15 -12 27 -8 27 5 0 3 5
-4 12 -7 7 -12 20 -12 30 0 10 -5 18 -11 18 -5 0 -7 5 -4 10 3 6 1 10 -5 10
-6 0 -9 4 -6 8 3 5 -4 23 -15 40 -10 18 -19 39 -19 47 0 8 -5 15 -11 15 -6 0
-9 7 -5 15 3 8 1 15 -5 15 -5 0 -14 12 -20 28 -18 48 -54 117 -66 127 -6 6
-13 19 -15 30 -2 11 -6 22 -9 25 -4 3 -21 32 -40 65 -18 33 -37 63 -41 66 -5
3 -10 15 -11 27 0 11 -4 19 -8 16 -4 -2 -14 14 -23 36 -9 23 -23 43 -30 46 -8
3 -13 11 -10 19 3 7 -2 15 -10 18 -9 4 -16 13 -16 22 0 8 -4 15 -10 15 -5 0
-10 7 -10 15 0 8 -5 15 -12 15 -6 0 -9 3 -5 6 3 4 1 12 -6 20 -30 33 -35 42
-30 48 3 3 -2 8 -11 12 -9 3 -13 10 -10 15 3 5 -2 12 -10 15 -9 3 -14 9 -11
13 2 4 -9 22 -24 39 -16 17 -27 33 -24 36 3 2 -4 11 -16 18 -12 7 -21 18 -21
25 0 7 -11 24 -25 39 -14 15 -25 31 -25 35 0 4 -11 19 -25 33 -14 14 -25 29
-25 33 -1 4 -14 19 -30 33 -17 13 -30 27 -30 32 0 14 -101 108 -111 103 -5 -4
-9 -2 -9 3 0 25 -41 2 -90 -49z"/>
<path d="M1496 5973 c-1 -2 -23 -4 -47 -4 -24 -1 -49 -6 -56 -11 -7 -5 -17 -7
-23 -3 -5 3 -10 1 -10 -5 0 -6 -4 -8 -10 -5 -5 3 -20 0 -32 -7 -13 -7 -25 -13
-28 -14 -34 -8 -124 -66 -157 -101 -13 -13 -23 -21 -23 -17 0 4 -14 -11 -30
-32 -17 -22 -38 -48 -47 -59 -10 -11 -15 -21 -13 -22 3 -1 -2 -11 -11 -21 -8
-10 -14 -23 -11 -30 2 -7 -1 -12 -7 -12 -6 0 -11 -9 -11 -20 0 -11 -4 -20 -10
-20 -5 0 -7 -7 -4 -15 4 -8 2 -15 -3 -15 -5 0 -9 -16 -8 -35 0 -19 -2 -35 -6
-35 -13 0 -1 -204 14 -240 3 -8 11 -34 17 -57 6 -24 15 -43 20 -43 6 0 10 -9
10 -20 0 -11 4 -20 9 -20 5 0 14 -13 21 -30 7 -16 16 -27 21 -24 5 3 9 0 9 -6
0 -16 82 -100 98 -100 6 0 12 -4 12 -10 0 -5 7 -10 15 -10 8 0 15 -5 15 -11 0
-5 5 -7 10 -4 6 3 10 1 10 -4 0 -6 3 -10 8 -9 4 1 34 -11 67 -26 92 -44 173
-75 179 -68 3 3 6 0 6 -6 0 -7 3 -11 8 -10 6 3 70 -15 112 -30 8 -3 18 -6 23
-7 4 -2 10 -4 15 -5 4 -2 12 -4 17 -5 6 -1 22 -5 36 -9 14 -4 33 -8 42 -10 9
-1 19 -5 23 -8 3 -4 13 -4 22 -1 8 4 13 2 10 -3 -4 -5 4 -10 15 -10 12 -1 38
-5 57 -9 19 -3 42 -7 50 -9 9 -1 20 -5 25 -8 6 -3 18 -4 28 -3 9 2 17 0 17 -3
0 -4 15 -8 33 -9 91 -6 163 -17 169 -27 5 -8 8 -8 8 0 0 6 7 11 15 11 8 0 15
-4 15 -9 0 -5 6 -6 13 -1 6 4 18 8 25 9 23 4 25 12 24 83 -1 80 -3 93 -17 103
-6 5 -5 8 3 8 8 0 10 5 5 13 -8 12 -8 16 -18 82 -4 22 -9 51 -11 65 -3 14 -6
33 -7 43 -1 9 -5 17 -9 17 -4 0 -5 7 -2 15 4 8 1 15 -5 15 -6 0 -8 7 -5 15 3
8 2 20 -2 27 -4 6 -9 25 -11 42 -2 16 -8 35 -14 43 -6 7 -8 13 -4 13 4 0 3 6
-2 13 -5 6 -8 22 -7 35 0 12 -3 22 -7 22 -5 0 -9 9 -9 19 0 11 -4 22 -9 26 -6
3 -8 14 -6 25 2 11 -1 20 -7 20 -5 0 -8 7 -4 15 3 8 1 15 -4 15 -6 0 -10 9
-10 19 0 11 -4 23 -10 26 -5 3 -10 13 -10 22 0 8 -12 38 -26 67 -14 28 -25 52
-25 54 5 13 -1 22 -11 16 -7 -5 -8 -3 -3 6 4 7 2 15 -4 20 -7 4 -13 17 -14 28
-1 12 -5 22 -9 22 -4 0 -14 13 -23 30 -17 33 -66 86 -77 83 -4 -2 -9 5 -13 15
-6 17 -68 62 -86 62 -5 0 -9 5 -9 11 0 5 -4 7 -10 4 -5 -3 -10 -1 -10 6 0 7
-3 10 -6 6 -3 -3 -22 3 -42 13 -19 11 -39 17 -43 14 -4 -2 -10 0 -14 5 -3 6
-12 8 -20 4 -8 -3 -15 1 -15 8 0 7 -2 10 -6 7 -3 -3 -21 -2 -40 2 -20 5 -34 4
-34 -2 0 -5 -5 -6 -12 -2 -12 8 -56 12 -62 7z"/>
<path d="M5519 5816 c-2 -2 -20 -6 -39 -9 -19 -4 -53 -11 -75 -17 -22 -6 -46
-12 -52 -12 -7 -1 -13 -5 -13 -10 0 -5 -4 -6 -10 -3 -5 3 -10 1 -10 -4 0 -6
-9 -11 -20 -11 -11 0 -20 -4 -20 -10 0 -5 -7 -6 -17 -3 -11 4 -14 3 -9 -5 4
-7 1 -12 -8 -12 -9 0 -16 -5 -16 -11 0 -5 -4 -8 -9 -4 -5 3 -12 -4 -16 -15 -4
-11 -9 -19 -13 -17 -4 2 -26 -15 -49 -39 -22 -24 -39 -44 -36 -44 2 0 -9 -14
-26 -31 -17 -17 -31 -35 -31 -40 0 -6 -4 -7 -10 -4 -6 4 -7 -1 -3 -11 4 -12 3
-15 -5 -10 -7 4 -12 1 -12 -8 0 -9 -4 -16 -10 -16 -5 0 -10 -7 -10 -15 0 -9
-7 -18 -15 -21 -8 -4 -12 -10 -9 -15 3 -5 0 -9 -5 -9 -6 0 -11 -7 -11 -15 0
-8 -4 -15 -10 -15 -5 0 -17 -16 -26 -35 -9 -19 -21 -35 -26 -35 -5 0 -6 -4 -3
-10 3 -5 1 -10 -5 -10 -6 0 -9 -4 -6 -9 3 -4 -3 -16 -14 -26 -11 -10 -17 -22
-14 -26 3 -5 0 -9 -7 -9 -7 0 -10 -3 -6 -6 3 -4 1 -12 -6 -20 -28 -31 -37 -44
-33 -44 8 0 -43 -98 -54 -105 -6 -4 -8 -10 -5 -15 3 -5 -3 -13 -12 -19 -10 -6
-15 -11 -10 -11 4 0 1 -13 -8 -30 -9 -16 -12 -30 -8 -30 5 0 0 -5 -9 -11 -10
-5 -18 -21 -18 -34 0 -14 -5 -25 -10 -25 -6 0 -10 -6 -9 -12 2 -19 -12 -58
-21 -58 -4 0 -6 -11 -5 -25 2 -14 -1 -25 -5 -25 -5 0 -8 -10 -7 -21 2 -27 54
-51 117 -55 25 -1 45 -3 45 -4 0 -7 172 -22 253 -23 37 0 62 -5 62 -11 0 -6 4
-5 9 2 9 14 32 13 44 -3 4 -7 10 -7 15 0 9 13 62 15 62 2 0 -5 6 -4 14 2 10 9
16 9 21 1 4 -6 12 -7 18 -2 15 10 48 9 66 -2 10 -6 12 -6 7 3 -6 9 5 12 41 11
67 -1 97 3 105 15 5 6 8 5 8 -4 0 -9 6 -11 18 -6 9 4 28 9 42 10 14 2 25 4 25
5 0 1 16 4 35 6 62 7 105 16 117 26 7 5 17 7 23 3 5 -3 10 -1 10 6 0 7 3 10 6
6 7 -7 80 32 133 71 34 26 93 82 85 82 -1 0 8 12 21 26 13 14 30 39 37 55 7
16 16 29 20 29 5 0 7 3 6 8 -1 6 6 26 29 82 16 41 23 225 11 295 -7 35 -37
116 -50 130 -4 5 -8 18 -8 29 0 10 -3 16 -7 13 -3 -4 -17 11 -30 33 -13 22
-28 40 -34 40 -5 0 -9 7 -9 16 0 8 -4 13 -8 10 -5 -3 -17 7 -28 21 -23 32 -94
78 -113 74 -7 -1 -10 2 -6 8 3 6 -1 11 -9 11 -9 0 -16 4 -16 9 0 6 -9 8 -20 6
-11 -2 -20 0 -20 5 0 9 -25 16 -134 36 -16 2 -33 7 -37 10 -4 2 -11 -1 -15 -7
-4 -8 -9 -7 -15 2 -7 11 -9 11 -9 1 0 -9 -5 -10 -19 -3 -10 6 -20 9 -22 7z"/>
<path d="M2047 4543 c-4 -3 -35 -8 -69 -10 -34 -2 -66 -9 -70 -16 -5 -8 -8 -8
-8 -1 0 8 -23 5 -67 -8 -79 -22 -79 -22 -118 -33 -16 -4 -34 -10 -40 -14 -5
-3 -19 -7 -29 -8 -11 -2 -24 -7 -30 -12 -6 -5 -29 -14 -51 -21 -22 -7 -49 -18
-60 -23 -11 -6 -22 -12 -25 -12 -3 0 -15 -6 -26 -13 -12 -6 -24 -8 -28 -5 -3
3 -6 1 -6 -5 0 -7 -3 -11 -7 -10 -11 2 -67 -25 -75 -37 -4 -5 -8 -6 -8 -1 0 5
-7 3 -15 -4 -8 -7 -15 -9 -15 -5 0 5 -8 1 -18 -8 -10 -10 -22 -14 -25 -10 -4
3 -7 1 -7 -6 0 -7 -5 -9 -10 -6 -5 3 -10 2 -10 -3 0 -5 -20 -17 -45 -28 -25
-10 -45 -21 -45 -25 0 -6 -38 -20 -49 -18 -2 0 -7 -4 -10 -9 -8 -12 -74 -47
-83 -44 -5 1 -8 -2 -8 -6 0 -5 -23 -19 -50 -32 -27 -13 -50 -27 -50 -31 0 -4
-12 -12 -27 -18 -25 -10 -48 -22 -77 -43 -42 -30 -116 -76 -116 -72 0 3 -24
-13 -52 -34 -29 -21 -62 -42 -72 -45 -10 -4 -16 -10 -13 -14 4 -3 -11 -15 -32
-27 -45 -24 -81 -50 -124 -88 -18 -16 -38 -28 -46 -28 -8 0 -12 -3 -8 -6 3 -4
-18 -26 -48 -49 -30 -23 -52 -45 -48 -49 3 -3 -1 -6 -11 -6 -9 0 -14 -4 -11
-10 3 -5 1 -10 -5 -10 -6 0 -8 -4 -5 -10 3 -5 1 -10 -5 -10 -6 0 -4 -13 6 -32
20 -38 38 -58 54 -58 6 0 8 -4 5 -10 -3 -5 -2 -10 3 -10 5 0 20 -10 34 -22 13
-13 40 -34 58 -48 19 -14 42 -33 52 -42 10 -10 18 -15 18 -12 0 3 6 -1 14 -8
7 -7 24 -20 36 -28 12 -8 28 -21 36 -27 7 -7 17 -13 23 -13 6 0 11 -4 11 -10
0 -5 5 -10 11 -10 6 0 17 -6 24 -12 35 -31 45 -38 45 -31 0 4 4 3 8 -2 13 -19
69 -55 76 -48 3 3 6 0 6 -7 0 -7 3 -10 6 -7 4 4 15 -3 25 -15 11 -11 19 -18
19 -14 0 4 15 -3 33 -16 50 -36 70 -48 100 -61 15 -6 27 -14 27 -18 0 -4 15
-13 33 -20 17 -7 38 -19 45 -26 8 -7 18 -11 23 -8 5 4 9 3 9 -2 0 -4 10 -13
23 -19 60 -30 113 -60 119 -69 4 -5 8 -6 8 -1 0 5 8 2 18 -6 17 -15 49 -29 56
-25 2 1 13 -6 24 -16 11 -10 29 -19 41 -20 11 -1 23 -7 26 -15 3 -7 9 -11 14
-8 5 4 15 0 23 -7 7 -8 21 -13 31 -11 9 1 15 -2 11 -7 -3 -5 4 -9 15 -9 12 0
21 -5 21 -11 0 -6 7 -9 15 -5 8 3 15 1 15 -5 0 -6 5 -7 10 -4 6 3 10 1 10 -4
0 -6 9 -11 20 -11 11 0 20 -4 20 -9 0 -6 9 -8 20 -6 11 2 20 0 20 -4 0 -5 16
-12 35 -15 24 -5 33 -11 29 -19 -4 -7 -4 -9 0 -5 4 3 22 2 39 -4 18 -5 37 -10
44 -12 7 -1 15 -5 19 -8 3 -4 13 -4 22 -1 10 4 13 2 8 -5 -4 -7 1 -10 14 -7
11 2 22 -1 25 -6 4 -5 10 -7 15 -4 4 2 27 -1 51 -8 24 -7 61 -12 82 -12 20 0
37 -4 37 -10 0 -5 5 -3 10 5 8 12 10 12 10 1 0 -11 3 -11 15 -1 10 8 15 9 15
1 0 -7 8 -8 25 -1 16 6 26 6 31 -1 3 -6 10 -6 17 -1 7 5 27 9 45 8 17 0 32 2
32 5 0 4 10 7 23 7 21 1 62 9 62 12 0 1 8 3 18 6 30 7 41 11 67 21 14 6 28 9
33 6 4 -2 7 1 7 7 0 6 4 9 9 6 5 -3 14 1 21 9 7 8 16 13 20 10 5 -3 16 3 26
12 10 10 18 17 18 15 2 -9 56 19 56 28 0 6 4 9 9 6 5 -3 24 8 42 24 19 16 39
30 44 30 6 0 17 9 25 20 8 11 21 20 29 20 8 0 11 3 8 6 -4 4 10 20 30 35 20
16 32 29 28 29 -4 0 7 14 25 30 18 17 29 30 25 30 -5 0 2 8 13 19 12 10 22 23
22 30 0 6 5 11 11 11 5 0 8 4 5 9 -3 5 1 12 10 15 8 3 12 10 9 16 -3 5 -1 10
4 10 6 0 11 7 11 15 0 8 4 15 10 15 5 0 9 3 8 8 -1 4 10 32 24 62 35 74 42 93
39 108 -1 6 2 12 8 12 5 0 8 11 6 25 -1 14 1 25 4 25 4 0 8 12 9 28 3 39 7 56
13 67 5 9 5 280 -1 280 -1 0 -4 16 -7 35 -2 19 -9 42 -14 51 -5 10 -9 29 -9
43 0 14 -4 28 -10 31 -5 3 -10 17 -10 31 0 13 -4 24 -10 24 -5 0 -10 7 -10 15
0 17 -20 56 -33 66 -5 3 -8 8 -6 10 5 9 -13 49 -22 49 -6 0 -7 5 -4 10 3 6 2
10 -2 10 -5 0 -19 18 -33 40 -14 22 -28 40 -32 40 -5 0 -8 5 -8 10 0 6 -13 24
-30 40 -16 16 -30 35 -30 41 0 7 -3 10 -6 7 -3 -4 -23 11 -45 33 -21 21 -39
37 -39 34 0 -4 -9 2 -62 47 -11 10 -25 15 -29 12 -5 -3 -9 0 -9 6 0 10 -130
78 -182 95 -33 10 -38 12 -40 15 -7 4 -90 23 -110 24 -10 0 -18 4 -18 8 0 4
-8 7 -17 7 -46 -1 -141 9 -150 14 -6 4 -13 4 -16 0z"/>
<path d="M4900 4544 c0 -6 -15 -10 -36 -9 -19 1 -37 -2 -40 -6 -2 -4 -16 -6
-29 -3 -14 2 -25 0 -25 -5 0 -6 -9 -8 -20 -6 -11 2 -22 0 -25 -5 -3 -5 -17 -7
-30 -4 -14 2 -25 0 -25 -5 0 -4 -12 -11 -27 -14 -16 -3 -46 -14 -68 -23 -22
-10 -43 -17 -47 -16 -5 1 -8 -2 -8 -8 0 -5 -3 -9 -7 -8 -11 3 -110 -52 -139
-77 -6 -5 -22 -17 -34 -25 -13 -8 -32 -25 -43 -37 -11 -12 -24 -20 -29 -17 -4
3 -8 0 -8 -6 0 -13 -57 -70 -71 -70 -6 0 -7 -5 -4 -10 4 -6 -5 -20 -19 -31
-15 -11 -24 -24 -22 -28 3 -4 -4 -14 -15 -21 -10 -8 -19 -22 -19 -32 0 -10 -4
-18 -9 -18 -10 0 -76 -126 -76 -145 0 -5 -6 -16 -13 -23 -7 -8 -10 -18 -7 -23
4 -5 2 -9 -4 -9 -5 0 -8 -8 -6 -17 1 -10 -2 -24 -8 -30 -5 -7 -6 -13 -3 -13 4
0 3 -8 -3 -17 -5 -10 -12 -38 -16 -63 -9 -56 -14 -291 -6 -305 6 -11 10 -28
13 -67 1 -16 5 -28 8 -28 3 0 6 -11 6 -25 1 -14 5 -33 10 -43 4 -9 8 -20 9
-24 2 -5 4 -10 5 -13 3 -6 5 -12 15 -42 4 -13 12 -23 18 -23 6 0 7 -3 4 -6 -7
-7 39 -99 60 -122 7 -7 13 -17 13 -20 0 -4 11 -20 25 -35 14 -15 23 -27 19
-27 -4 0 5 -11 20 -25 14 -13 26 -29 26 -35 0 -6 5 -8 10 -5 6 3 10 -2 10 -11
0 -10 3 -15 6 -11 8 7 34 -17 34 -32 0 -6 4 -11 10 -11 9 0 35 -19 65 -47 8
-7 18 -13 23 -13 6 0 13 -7 16 -16 3 -8 10 -12 16 -9 5 3 10 2 10 -3 0 -10
180 -102 199 -102 5 0 22 -5 38 -12 31 -12 38 -14 73 -21 14 -3 25 -6 25 -7 0
-2 46 -9 82 -11 20 -1 30 -6 26 -13 -3 -6 0 -5 8 2 14 13 33 17 26 5 -3 -5 23
-7 56 -6 34 1 62 2 62 3 0 1 11 3 25 4 14 1 48 6 75 11 28 5 53 8 58 7 4 -1 7
2 7 7 0 5 8 8 18 6 9 -1 22 1 27 5 6 4 24 11 40 15 44 12 45 12 50 15 3 1 10
4 15 5 6 1 12 4 15 5 3 1 8 3 13 5 14 4 47 17 80 31 18 8 39 14 47 14 7 0 21
7 29 16 9 8 16 12 16 8 0 -3 7 0 17 7 9 8 18 13 19 12 9 -4 44 10 44 18 0 5 3
8 8 7 13 -3 62 14 62 22 0 4 11 11 25 14 14 4 25 11 25 17 0 6 4 8 9 5 12 -8
42 4 36 13 -2 4 2 8 10 9 8 1 22 3 30 4 8 1 15 7 15 14 0 8 6 11 15 8 8 -4 15
-1 15 5 0 6 7 11 15 11 9 0 18 7 21 15 4 8 10 13 14 10 5 -3 25 6 45 20 21 13
41 22 46 19 5 -3 12 1 15 9 5 14 39 31 57 28 4 -1 7 3 7 9 0 5 7 10 15 10 9 0
18 7 22 16 3 8 11 13 18 11 6 -3 17 4 24 15 7 11 15 17 18 14 6 -6 63 31 75
49 4 5 8 6 8 1 0 -4 15 3 34 18 19 14 39 26 45 26 6 0 11 5 11 12 0 6 3 9 6 5
3 -3 11 -2 18 4 33 28 103 76 119 82 9 3 17 11 17 16 0 5 8 12 19 16 16 5 31
16 78 55 7 5 15 10 18 10 3 0 21 15 40 34 18 19 36 32 39 29 2 -3 10 5 16 17
6 12 14 20 16 17 8 -8 61 47 78 81 15 30 15 32 -7 54 -13 13 -24 26 -25 31 -1
4 -5 8 -9 9 -5 1 -18 13 -29 25 -12 13 -26 23 -33 23 -6 0 -11 7 -11 16 0 8
-4 13 -8 10 -5 -3 -14 4 -22 14 -8 10 -17 17 -22 14 -4 -3 -8 2 -8 10 0 9 -7
16 -15 16 -8 0 -15 5 -15 10 0 6 -7 10 -15 10 -8 0 -15 5 -15 10 0 6 -6 10
-14 10 -8 0 -17 7 -20 16 -4 9 -9 14 -12 11 -4 -3 -12 -1 -19 6 -7 7 -23 19
-35 27 -12 8 -29 21 -36 28 -8 7 -14 11 -14 7 0 -3 -10 3 -22 15 -12 11 -26
20 -31 20 -4 0 -15 6 -22 13 -31 27 -41 34 -72 47 -18 8 -33 18 -33 22 0 5 -7
8 -15 8 -8 0 -15 5 -15 10 0 6 -7 10 -15 10 -8 0 -15 5 -15 11 0 5 -4 8 -9 5
-5 -3 -14 1 -21 9 -7 8 -17 15 -22 15 -5 0 -16 6 -23 13 -33 29 -41 33 -53 29
-6 -2 -12 1 -12 6 0 6 -13 15 -30 21 -16 5 -30 16 -30 23 0 9 -3 9 -10 -2 -5
-8 -10 -10 -10 -4 0 7 -16 20 -36 30 -20 11 -50 26 -68 35 -17 10 -34 15 -38
12 -5 -2 -8 3 -8 12 0 9 -4 13 -10 10 -5 -3 -10 -1 -10 5 0 6 -4 8 -10 5 -5
-3 -10 -1 -10 4 0 6 -3 10 -7 9 -11 -2 -127 54 -131 64 -2 5 -8 5 -13 2 -6 -3
-19 2 -29 11 -11 10 -26 15 -35 11 -9 -3 -14 -2 -11 3 5 8 -16 22 -39 26 -5 0
-23 6 -38 13 -16 7 -31 12 -33 12 -3 0 -24 9 -47 19 -23 11 -59 22 -80 26 -20
4 -40 11 -42 16 -3 4 -26 11 -50 15 -25 3 -43 9 -41 13 2 3 -11 6 -30 5 -19
-1 -34 1 -34 5 0 8 -60 14 -145 15 -27 1 -53 6 -57 11 -5 6 -8 6 -8 -1z"/>
<path d="M3422 3915 c-9 -5 -23 -10 -29 -11 -21 -4 -83 -45 -83 -55 0 -6 -4
-7 -10 -4 -5 3 -12 -6 -16 -20 -3 -13 -10 -23 -14 -20 -4 3 -16 -14 -25 -38
-9 -23 -22 -45 -28 -49 -9 -6 -8 -8 1 -8 9 0 10 -6 5 -17 -14 -31 1 -163 18
-163 5 0 9 -7 9 -15 0 -8 9 -24 20 -35 11 -11 20 -25 20 -32 0 -6 3 -8 6 -5 4
4 14 -1 23 -11 19 -20 81 -56 81 -46 0 3 6 2 13 -4 17 -14 117 -23 117 -10 0
6 6 5 15 -2 11 -9 15 -9 15 -1 0 7 6 11 13 9 21 -4 90 35 128 72 40 39 69 91
74 134 3 15 9 34 15 41 8 10 7 16 -7 24 -10 6 -13 11 -6 11 12 0 12 5 -2 55
-17 66 -82 155 -113 155 -7 0 -10 5 -7 10 3 6 -3 10 -14 10 -10 0 -21 4 -23
10 -1 5 -18 10 -35 12 -18 1 -33 5 -33 8 0 10 -110 6 -128 -5z"/>
<path d="M3416 3023 c-7 -7 -34 -12 -88 -15 -16 -1 -28 -5 -28 -8 0 -4 -11 -6
-25 -5 -14 2 -25 -1 -25 -6 0 -4 -7 -6 -15 -3 -8 4 -15 1 -15 -7 0 -7 -3 -10
-6 -6 -4 3 -22 0 -40 -8 -19 -8 -34 -11 -34 -7 0 3 -5 1 -12 -6 -7 -7 -20 -12
-30 -12 -10 0 -18 -5 -18 -11 0 -5 -4 -8 -9 -4 -5 3 -12 1 -16 -5 -4 -6 -10
-8 -15 -5 -4 3 -11 -2 -14 -11 -3 -8 -10 -12 -16 -9 -6 3 -13 -1 -16 -10 -4
-9 -13 -14 -20 -11 -7 3 -17 0 -21 -7 -5 -7 -27 -25 -49 -40 -23 -15 -52 -39
-64 -52 -13 -13 -27 -22 -31 -19 -5 3 -9 1 -9 -5 0 -6 -18 -29 -40 -51 -22
-22 -40 -45 -40 -49 0 -5 -7 -11 -15 -15 -8 -3 -15 -13 -15 -22 0 -10 -3 -14
-7 -10 -4 4 -14 -6 -23 -22 -8 -16 -26 -49 -40 -73 -13 -24 -23 -47 -22 -51 1
-5 -2 -8 -7 -8 -9 0 -26 -48 -23 -62 1 -5 -3 -8 -10 -8 -6 0 -8 -3 -5 -7 4 -3
2 -12 -3 -18 -6 -7 -11 -24 -12 -39 -1 -14 -5 -26 -9 -26 -4 0 -6 -8 -4 -17 1
-10 -1 -22 -5 -28 -17 -22 -35 -295 -20 -295 3 0 6 -10 7 -22 2 -45 7 -78 13
-78 3 0 7 -17 8 -37 2 -21 8 -41 15 -45 7 -4 9 -8 5 -8 -4 0 0 -16 8 -35 8
-20 12 -40 9 -45 -4 -6 -1 -10 5 -10 6 0 8 -4 5 -10 -3 -5 -1 -10 5 -10 6 0 9
-4 6 -8 -3 -5 5 -29 18 -55 13 -25 22 -48 19 -51 -3 -2 7 -25 22 -50 15 -25
24 -46 19 -46 -4 0 1 -9 12 -21 10 -12 18 -24 18 -28 -2 -8 38 -94 47 -101 3
-3 12 -22 20 -42 7 -21 16 -38 19 -38 4 0 12 -16 20 -35 8 -19 17 -35 22 -35
4 0 8 -9 8 -20 0 -11 5 -20 10 -20 6 0 10 -7 10 -15 0 -8 5 -15 11 -15 5 0 8
-4 4 -9 -3 -5 -1 -12 4 -15 5 -4 22 -31 37 -61 16 -30 32 -55 36 -55 4 0 8 -5
8 -10 0 -6 18 -38 40 -71 22 -33 40 -65 40 -70 0 -5 5 -9 10 -9 6 0 10 -5 10
-12 0 -6 11 -26 26 -45 14 -18 23 -33 20 -33 -6 0 16 -28 42 -55 6 -8 12 -18
12 -24 0 -6 5 -11 11 -11 5 0 8 -4 5 -9 -3 -5 1 -11 9 -15 8 -3 15 -10 15 -16
0 -6 11 -23 24 -37 14 -15 23 -30 20 -35 -3 -4 2 -8 11 -8 9 0 14 -4 11 -9 -3
-4 6 -18 19 -31 13 -13 22 -27 19 -31 -3 -5 3 -9 12 -9 10 0 15 -3 12 -6 -6
-5 32 -50 113 -135 33 -33 59 -46 82 -39 4 1 11 3 15 4 12 2 105 96 95 96 -4
0 0 5 10 11 9 6 14 15 11 21 -4 7 -2 8 4 4 11 -7 38 32 34 47 -1 5 2 6 7 2 6
-3 18 7 28 22 10 15 22 33 28 40 5 7 16 19 23 27 6 8 12 18 12 21 0 3 9 15 20
27 11 12 20 28 20 37 0 8 3 11 6 8 8 -8 73 92 74 111 0 7 5 10 10 7 6 -3 10
-2 10 3 0 5 11 25 24 45 13 19 22 38 18 41 -3 3 0 6 7 6 6 0 16 11 21 25 5 14
14 25 20 25 6 0 9 4 6 8 -3 5 8 28 25 50 17 23 28 42 24 42 -3 0 1 7 9 16 9 8
16 22 16 30 0 8 4 13 9 10 5 -4 12 7 16 24 4 16 11 30 16 30 5 0 9 6 9 14 0 7
9 25 21 40 11 14 17 26 13 26 -4 0 2 10 14 23 12 13 19 27 15 30 -3 4 0 7 7 7
7 0 10 3 7 6 -4 4 2 19 12 33 18 26 32 56 37 78 1 7 11 24 22 38 12 14 24 39
27 55 4 17 11 30 16 30 6 0 8 4 4 9 -3 5 2 17 11 25 8 9 12 16 8 16 -3 0 -1 6
5 13 6 8 8 17 4 20 -3 4 -1 7 6 7 7 0 10 4 6 9 -3 5 0 15 7 23 7 7 13 18 13
23 1 28 29 94 38 88 6 -3 7 -1 4 4 -4 6 2 36 12 66 11 30 17 58 14 61 -4 3 -2
6 4 6 6 0 9 11 8 25 -2 14 0 25 5 25 4 0 7 14 6 30 -1 17 2 30 7 30 5 0 7 7 3
15 -3 8 -2 15 2 15 6 0 8 174 2 190 -1 5 -10 80 -12 108 -1 6 -5 12 -10 12 -4
0 -7 3 -6 8 5 15 -26 122 -35 122 -6 0 -7 3 -4 6 4 4 0 19 -7 33 -8 14 -24 47
-37 74 -13 26 -27 47 -31 47 -5 0 -8 9 -8 19 0 11 -4 21 -8 23 -4 2 -24 24
-44 50 -19 26 -38 45 -42 41 -3 -3 -6 0 -6 7 0 13 -59 73 -119 120 -17 14 -38
31 -46 38 -7 6 -18 12 -24 12 -6 0 -11 3 -11 8 0 4 -10 12 -23 17 -12 6 -40
20 -62 32 -87 45 -201 87 -214 79 -5 -4 -12 -2 -16 4 -4 6 -10 8 -15 5 -5 -3
-11 -2 -14 3 -2 4 -20 9 -38 10 -48 4 -61 7 -77 16 -9 6 -12 5 -7 -2 4 -7 -1
-10 -14 -9 -11 1 -20 4 -20 7 0 5 -26 4 -90 -3 -14 -1 -28 1 -31 5 -3 5 -9 5
-13 1z"/>
<path d="M1744 2462 c3 -5 -31 -9 -89 -8 -61 2 -95 -2 -95 -8 0 -6 -5 -4 -10
4 -5 8 -10 11 -10 5 0 -6 -28 -10 -65 -9 -39 0 -65 -4 -65 -10 0 -6 -5 -4 -10
4 -5 8 -10 10 -10 4 0 -5 -19 -11 -42 -13 -77 -4 -88 -6 -88 -11 0 -3 -10 -7
-22 -8 -26 -2 -63 -10 -63 -12 0 -1 -11 -4 -25 -6 -13 -2 -27 -8 -30 -12 -3
-4 -14 -9 -25 -10 -11 -2 -21 -8 -23 -13 -2 -5 -9 -9 -16 -9 -7 0 -21 -9 -31
-20 -10 -11 -20 -18 -22 -16 -8 8 -118 -110 -138 -147 -11 -21 -23 -37 -27
-37 -5 0 -8 -4 -8 -9 0 -5 -4 -20 -9 -33 -5 -13 -8 -26 -7 -29 0 -3 -4 -12
-11 -20 -6 -8 -15 -39 -19 -69 -4 -30 -12 -58 -18 -62 -6 -5 -7 -8 -1 -8 6 0
10 -31 10 -73 0 -39 3 -74 7 -77 4 -3 8 -20 10 -38 1 -18 7 -32 12 -32 5 0 6
-3 3 -7 -4 -3 -2 -12 3 -19 6 -6 13 -22 15 -35 3 -12 8 -25 12 -28 5 -3 15
-19 23 -36 8 -16 43 -57 76 -92 34 -34 59 -64 56 -67 -3 -3 4 -6 15 -6 11 0
31 -8 44 -18 35 -26 79 -43 92 -36 7 4 9 3 4 -1 -9 -10 51 -37 64 -29 5 3 9 2
9 -3 0 -16 200 -19 260 -4 64 17 154 53 162 65 4 6 8 7 8 3 0 -8 16 3 53 38
12 11 35 30 51 43 16 12 26 22 20 22 -5 0 7 14 26 30 19 16 31 30 26 30 -5 0
8 16 28 35 21 19 34 39 31 45 -3 5 1 10 9 10 9 0 16 5 16 11 0 11 48 79 65 91
5 4 6 8 1 8 -5 0 -2 8 6 18 26 31 99 152 91 152 -5 0 -3 4 3 8 6 4 21 26 33
49 11 23 25 44 30 48 6 3 7 13 4 22 -4 10 -2 14 4 10 6 -4 14 3 18 16 10 30 8
26 35 81 13 26 23 54 23 62 0 7 3 11 7 9 6 -4 44 98 45 120 0 6 6 16 13 24 9
9 10 17 2 25 -5 7 -6 17 -2 22 4 5 3 6 -2 2 -5 -4 -14 -4 -20 1 -15 13 -104
31 -171 35 -17 1 -36 5 -43 10 -7 4 -12 2 -12 -6 0 -8 -3 -9 -8 -3 -7 10 -17
11 -172 16 -47 1 -93 7 -104 12 -11 6 -16 5 -12 -1z"/>
<path d="M5049 2456 c-3 -3 -37 -6 -77 -8 -40 -1 -72 -6 -72 -10 0 -4 -11 -3
-24 2 -13 5 -27 6 -30 2 -4 -3 -17 -7 -29 -8 -12 -1 -40 -5 -62 -9 -22 -4 -47
-8 -55 -9 -30 -5 -70 -18 -71 -25 -4 -34 -3 -68 2 -65 6 3 10 -8 24 -58 2 -5
4 -10 5 -13 1 -3 3 -9 4 -14 0 -6 7 -16 14 -22 6 -7 12 -19 12 -26 0 -8 8 -28
17 -46 9 -18 18 -34 18 -37 1 -3 16 -34 35 -70 19 -36 33 -68 32 -72 -1 -5 2
-8 8 -8 6 0 10 -6 10 -13 0 -7 9 -23 19 -34 11 -12 17 -24 13 -27 -3 -4 -2
-10 4 -14 14 -10 49 -66 46 -74 -1 -5 2 -8 8 -8 5 0 10 -7 10 -15 0 -8 4 -15
9 -15 5 0 14 -13 21 -30 7 -16 16 -30 21 -30 5 0 9 -7 9 -15 0 -8 3 -15 8 -15
4 0 18 -18 32 -40 13 -22 28 -40 32 -40 4 0 8 -6 8 -13 0 -7 9 -19 20 -27 11
-8 20 -17 20 -21 0 -12 63 -74 72 -72 4 2 7 -1 5 -6 -3 -10 74 -80 89 -81 6 0
17 -7 24 -15 7 -9 15 -13 18 -11 2 3 22 -4 43 -15 21 -10 50 -20 64 -21 14 -1
25 -5 25 -8 0 -3 26 -6 57 -8 31 -2 62 -7 68 -12 7 -6 15 -6 21 -1 5 5 29 12
54 15 25 2 56 7 70 9 45 8 142 49 161 68 11 11 21 18 24 17 14 -8 135 108 135
129 0 8 4 12 8 9 4 -2 20 18 35 45 16 27 25 49 22 49 -4 0 1 7 9 16 9 8 14 20
11 25 -4 5 -2 9 3 9 5 0 9 6 9 13 0 6 4 26 8 42 12 52 21 186 13 198 -4 7 -8
27 -8 45 0 18 -4 40 -9 50 -11 20 -23 52 -27 71 -1 8 -12 27 -23 42 -12 16
-21 32 -21 37 0 5 -17 28 -39 51 -21 22 -36 43 -33 46 3 3 -2 5 -11 5 -9 0
-17 7 -17 16 0 8 -4 13 -9 10 -5 -3 -21 6 -35 19 -15 14 -30 25 -33 25 -4 0
-14 7 -24 16 -9 8 -26 16 -38 17 -11 1 -21 5 -21 9 0 4 -12 8 -26 8 -14 0 -23
4 -20 9 4 5 -5 8 -19 6 -14 -1 -28 1 -30 6 -3 4 -14 6 -25 4 -11 -2 -20 -1
-20 3 0 7 -28 11 -77 12 -12 0 -25 5 -28 10 -4 7 -13 6 -26 0 -10 -6 -19 -7
-19 -2 0 11 -30 9 -49 -3 -9 -5 -12 -4 -8 2 4 6 -11 10 -36 11 -23 1 -52 4
-64 6 -13 3 -25 0 -28 -5 -4 -5 -12 -6 -18 -2 -19 12 -227 10 -227 -1 0 -6 -4
-5 -8 2 -5 7 -10 10 -13 8z"/>
</g>
</svg>
